<svg width="24" height="24" viewBox="0 0 24 24" fill="none" xmlns="http://www.w3.org/2000/svg">
<g clip-path="url(#clip0_39_129)">
<path d="M16.1648 19.2949H8.99926C8.33316 19.2949 7.69398 19.0123 7.24319 18.5212C6.7924 18.03 6.56365 17.3706 6.61747 16.7046L7.17592 10.0033C7.1961 9.79468 7.12208 9.59283 6.98079 9.43808C6.8395 9.28334 6.64438 9.20259 6.43581 9.20259H5.27183C4.99597 9.20259 4.76721 8.97383 4.76721 8.69798C4.76721 8.42212 4.99597 8.19336 5.27183 8.19336H6.44254C6.9337 8.19336 7.39794 8.40193 7.72762 8.75853C7.90929 8.96037 8.04385 9.19587 8.11786 9.45827H16.5214C17.201 9.45827 17.8267 9.72739 18.2842 10.2118C18.735 10.703 18.9638 11.3422 18.9099 12.0217L18.5466 17.0679C18.4726 18.2991 17.3961 19.2949 16.1648 19.2949ZM8.15151 10.4608L7.62671 16.7853C7.59306 17.1755 7.7209 17.5456 7.9833 17.8349C8.2457 18.1242 8.60902 18.279 8.99926 18.279H16.1648C16.8646 18.279 17.497 17.6869 17.5508 16.9871L17.9141 11.941C17.9411 11.544 17.8132 11.1672 17.5508 10.8914C17.2884 10.6088 16.9251 10.454 16.5281 10.454H8.15151V10.4608Z" fill="#292D32"/>
<path d="M14.8594 22.6589C14.1193 22.6589 13.5138 22.0534 13.5138 21.3133C13.5138 20.5732 14.1193 19.9677 14.8594 19.9677C15.5995 19.9677 16.2051 20.5732 16.2051 21.3133C16.2051 22.0534 15.5995 22.6589 14.8594 22.6589ZM14.8594 20.9769C14.671 20.9769 14.523 21.1249 14.523 21.3133C14.523 21.5017 14.671 21.6497 14.8594 21.6497C15.0478 21.6497 15.1958 21.5017 15.1958 21.3133C15.1958 21.1249 15.0478 20.9769 14.8594 20.9769Z" fill="#292D32"/>
<path d="M9.47687 22.6589C8.73677 22.6589 8.13123 22.0534 8.13123 21.3133C8.13123 20.5732 8.73677 19.9677 9.47687 19.9677C10.217 19.9677 10.8225 20.5732 10.8225 21.3133C10.8225 22.0534 10.217 22.6589 9.47687 22.6589ZM9.47687 20.9769C9.28848 20.9769 9.14046 21.1249 9.14046 21.3133C9.14046 21.5017 9.28848 21.6497 9.47687 21.6497C9.66526 21.6497 9.81328 21.5017 9.81328 21.3133C9.81328 21.1249 9.66526 20.9769 9.47687 20.9769Z" fill="#292D32"/>
<path d="M18.0554 13.2395H9.98155C9.70569 13.2395 9.47693 13.0107 9.47693 12.7348C9.47693 12.459 9.70569 12.2302 9.98155 12.2302H18.0554C18.3313 12.2302 18.56 12.459 18.56 12.7348C18.56 13.0107 18.3313 13.2395 18.0554 13.2395Z" fill="#292D32"/>
<path d="M13.7971 8.60595C13.7001 8.60595 13.6031 8.57022 13.5265 8.49366C13.3785 8.34564 13.3785 8.10064 13.5265 7.95262L16.3543 5.12491L13.5265 2.2972C13.3785 2.14918 13.3785 1.90418 13.5265 1.75616C13.6746 1.60814 13.9196 1.60814 14.0676 1.75616L17.1658 4.85439C17.3138 5.00241 17.3138 5.24741 17.1658 5.39543L14.0676 8.49366C13.991 8.57022 13.894 8.60595 13.7971 8.60595Z" fill="#292D32"/>
<path d="M16.8087 5.50781H8.21838C8.00911 5.50781 7.83557 5.33427 7.83557 5.125C7.83557 4.91573 8.00911 4.74219 8.21838 4.74219H16.8087C17.018 4.74219 17.1915 4.91573 17.1915 5.125C17.1915 5.33427 17.018 5.50781 16.8087 5.50781Z" fill="#292D32"/>
</g>
<defs>
<clipPath id="clip0_39_129">
<rect width="24" height="24" fill="white"/>
</clipPath>
</defs>
</svg>
