<svg width="104" height="21" viewBox="0 0 104 21" fill="none" xmlns="http://www.w3.org/2000/svg">
<path d="M10 0.131592L12.2451 7.04142H19.5106L13.6327 11.3119L15.8779 18.2218L10 13.9513L4.12215 18.2218L6.36729 11.3119L0.489435 7.04142H7.75486L10 0.131592Z" fill="#FFC657"/>
<path d="M31 0.131592L33.2451 7.04142H40.5106L34.6327 11.3119L36.8779 18.2218L31 13.9513L25.1221 18.2218L27.3673 11.3119L21.4894 7.04142H28.7549L31 0.131592Z" fill="#FFC657"/>
<path d="M52 0.131592L54.2451 7.04142H61.5106L55.6327 11.3119L57.8779 18.2218L52 13.9513L46.1221 18.2218L48.3673 11.3119L42.4894 7.04142H49.7549L52 0.131592Z" fill="#FFC657"/>
<path d="M73 0.131592L75.2451 7.04142H82.5106L76.6327 11.3119L78.8779 18.2218L73 13.9513L67.1221 18.2218L69.3673 11.3119L63.4894 7.04142H70.7549L73 0.131592Z" fill="#FFC657"/>
<path d="M94 0.131592L96.2451 7.04142H103.511L97.6327 11.3119L99.8779 18.2218L94 13.9513L88.1221 18.2218L90.3673 11.3119L84.4894 7.04142H91.7549L94 0.131592Z" fill="#FFC657"/>
</svg>
